# Blender v2.78 (sub 0) OBJ File: ''
# www.blender.org
mtllib icosahedron.mtl
o icosahedron
v 0.850651 -0.000000 0.525731
v 0.850651 0.000000 -0.525731
v 0.525731 0.850651 0.000000
v 0.525731 -0.850651 -0.000000
v -0.850651 0.000000 -0.525731
v -0.850651 -0.000000 0.525731
v -0.525731 0.850651 0.000000
v -0.525731 -0.850651 -0.000000
v 0.000000 0.525731 0.850651
v 0.000000 0.525731 -0.850651
v 0.000000 -0.525731 -0.850651
v 0.000000 -0.525731 0.850651
vt 0.4180 0.4221
vt 0.1973 0.3684
vt 0.4180 0.2071
vt 1.0000 0.5217
vt 0.7794 0.6830
vt 0.7417 0.4221
vt 0.2417 0.5035
vt 0.2417 0.7667
vt 0.0000 0.6351
vt 0.6153 0.3684
vt 0.4180 0.2609
vt 0.5776 0.1075
vt 0.9834 1.0000
vt 0.7417 0.8684
vt 0.9834 0.7367
vt 0.3570 0.0000
vt 0.1596 0.1075
vt 0.0000 0.2609
vt 0.7251 0.7367
vt 0.7251 1.0000
vt 0.4834 0.8684
vt 0.4834 0.5035
vt 0.4834 0.7667
vt 0.2417 0.6351
vt 0.7749 0.0000
vt 0.8359 0.2071
vt 0.7417 0.6371
vt 0.4834 0.7367
vt 0.5211 0.4758
vt 0.8359 0.4221
vt 0.7417 0.4221
vt 0.0308 0.4221
vt 0.0308 0.8481
vt 0.2725 0.4221
vt 1.0000 0.7367
vt 0.2725 0.8481
vn 0.9342 0.3568 -0.0000
vn 0.9342 -0.3568 -0.0000
vn -0.9342 0.3568 0.0000
vn -0.9342 -0.3568 -0.0000
vn 0.0000 0.9342 0.3568
vn 0.0000 0.9342 -0.3568
vn 0.3568 0.0000 -0.9342
vn -0.3568 -0.0000 -0.9342
vn 0.0000 -0.9342 -0.3568
vn 0.0000 -0.9342 0.3568
vn 0.3568 -0.0000 0.9342
vn -0.3568 0.0000 0.9342
vn 0.5774 0.5774 -0.5774
vn 0.5774 0.5774 0.5774
vn -0.5774 0.5774 -0.5774
vn -0.5774 0.5774 0.5774
vn 0.5774 -0.5774 -0.5774
vn 0.5774 -0.5774 0.5774
vn -0.5774 -0.5774 -0.5774
vn -0.5774 -0.5774 0.5774
usemtl None
s off
f 1/1/1 2/2/1 3/3/1
f 1/4/2 4/5/2 2/6/2
f 5/7/3 6/8/3 7/9/3
f 6/10/4 5/11/4 8/12/4
f 3/13/5 7/14/5 9/15/5
f 7/16/6 3/3/6 10/17/6
f 11/18/7 10/17/7 2/2/7
f 10/19/8 11/20/8 5/21/8
f 4/22/9 8/23/9 11/24/9
f 8/12/10 4/25/10 12/26/10
f 9/27/11 12/28/11 1/29/11
f 12/26/12 9/30/12 6/10/12
f 3/3/13 2/2/13 10/17/13
f 1/29/14 3/31/14 9/27/14
f 5/7/15 7/9/15 10/32/15
f 7/9/16 6/8/16 9/33/16
f 2/34/17 4/22/17 11/24/17
f 4/5/18 1/4/18 12/35/18
f 5/36/19 11/24/19 8/23/19
f 6/10/20 8/12/20 12/26/20
